<mxfile host="65bd71144e">
    <diagram name="Sida-1" id="H7tdTh3hRMyLAOaPEw9A">
        <mxGraphModel dx="1076" dy="784" grid="1" gridSize="10" guides="1" tooltips="1" connect="1" arrows="1" fold="1" page="1" pageScale="1" pageWidth="827" pageHeight="1169" math="0" shadow="0">
            <root>
                <mxCell id="0"/>
                <mxCell id="1" parent="0"/>
                <mxCell id="fWThxuAS40hPB4rWZJrL-3" value="" style="whiteSpace=wrap;html=1;aspect=fixed;" parent="1" vertex="1">
                    <mxGeometry x="170" y="230" width="320" height="320" as="geometry"/>
                </mxCell>
                <mxCell id="fWThxuAS40hPB4rWZJrL-5" value="StreamerClient" style="text;html=1;strokeColor=none;fillColor=none;align=center;verticalAlign=middle;whiteSpace=wrap;rounded=0;" parent="1" vertex="1">
                    <mxGeometry x="190" y="230" width="60" height="30" as="geometry"/>
                </mxCell>
                <mxCell id="fWThxuAS40hPB4rWZJrL-7" value="" style="rounded=0;whiteSpace=wrap;html=1;" parent="1" vertex="1">
                    <mxGeometry x="180" y="480" width="120" height="60" as="geometry"/>
                </mxCell>
                <mxCell id="fWThxuAS40hPB4rWZJrL-6" value="FrameStreamer" style="text;html=1;strokeColor=none;fillColor=none;align=center;verticalAlign=middle;whiteSpace=wrap;rounded=0;" parent="1" vertex="1">
                    <mxGeometry x="200" y="480" width="60" height="30" as="geometry"/>
                </mxCell>
                <mxCell id="fWThxuAS40hPB4rWZJrL-10" value="" style="strokeWidth=2;html=1;shape=mxgraph.flowchart.annotation_2;align=left;labelPosition=right;pointerEvents=1;" parent="1" vertex="1">
                    <mxGeometry x="490" y="230" width="140" height="320" as="geometry"/>
                </mxCell>
                <mxCell id="fWThxuAS40hPB4rWZJrL-11" value="StreamerClient.Run()" style="text;html=1;strokeColor=none;fillColor=none;align=center;verticalAlign=middle;whiteSpace=wrap;rounded=0;" parent="1" vertex="1">
                    <mxGeometry x="590" y="200" width="60" height="30" as="geometry"/>
                </mxCell>
                <mxCell id="fWThxuAS40hPB4rWZJrL-12" value="wait for next tick&lt;br&gt;&lt;br&gt;frame = FrameStreamer.AquireFrame()&lt;br&gt;&lt;br&gt;f.(frame)&lt;br&gt;&lt;br&gt;" style="text;html=1;strokeColor=none;fillColor=none;align=left;verticalAlign=top;whiteSpace=wrap;rounded=0;" parent="1" vertex="1">
                    <mxGeometry x="570" y="230" width="280" height="300" as="geometry"/>
                </mxCell>
            </root>
        </mxGraphModel>
    </diagram>
</mxfile>